<svg class="lds-spinner" width="200px"  height="200px"  xmlns="http://www.w3.org/2000/svg" xmlns:xlink="http://www.w3.org/1999/xlink" viewBox="0 0 100 100" preserveAspectRatio="xMidYMid" style="background: none;"><g transform="rotate(0 50 50)">
  <rect x="45.5" y="3.5" rx="32.76" ry="2.52" width="9" height="27" fill="#b3c430">
    <animate attributeName="opacity" values="1;0" times="0;1" dur="3s" begin="-2.75s" repeatCount="indefinite"></animate>
  </rect>
</g><g transform="rotate(30 50 50)">
  <rect x="45.5" y="3.5" rx="32.76" ry="2.52" width="9" height="27" fill="#b3c430">
    <animate attributeName="opacity" values="1;0" times="0;1" dur="3s" begin="-2.5s" repeatCount="indefinite"></animate>
  </rect>
</g><g transform="rotate(60 50 50)">
  <rect x="45.5" y="3.5" rx="32.76" ry="2.52" width="9" height="27" fill="#b3c430">
    <animate attributeName="opacity" values="1;0" times="0;1" dur="3s" begin="-2.25s" repeatCount="indefinite"></animate>
  </rect>
</g><g transform="rotate(90 50 50)">
  <rect x="45.5" y="3.5" rx="32.76" ry="2.52" width="9" height="27" fill="#b3c430">
    <animate attributeName="opacity" values="1;0" times="0;1" dur="3s" begin="-2s" repeatCount="indefinite"></animate>
  </rect>
</g><g transform="rotate(120 50 50)">
  <rect x="45.5" y="3.5" rx="32.76" ry="2.52" width="9" height="27" fill="#b3c430">
    <animate attributeName="opacity" values="1;0" times="0;1" dur="3s" begin="-1.75s" repeatCount="indefinite"></animate>
  </rect>
</g><g transform="rotate(150 50 50)">
  <rect x="45.5" y="3.5" rx="32.76" ry="2.52" width="9" height="27" fill="#b3c430">
    <animate attributeName="opacity" values="1;0" times="0;1" dur="3s" begin="-1.5s" repeatCount="indefinite"></animate>
  </rect>
</g><g transform="rotate(180 50 50)">
  <rect x="45.5" y="3.5" rx="32.76" ry="2.52" width="9" height="27" fill="#b3c430">
    <animate attributeName="opacity" values="1;0" times="0;1" dur="3s" begin="-1.25s" repeatCount="indefinite"></animate>
  </rect>
</g><g transform="rotate(210 50 50)">
  <rect x="45.5" y="3.5" rx="32.76" ry="2.52" width="9" height="27" fill="#b3c430">
    <animate attributeName="opacity" values="1;0" times="0;1" dur="3s" begin="-1s" repeatCount="indefinite"></animate>
  </rect>
</g><g transform="rotate(240 50 50)">
  <rect x="45.5" y="3.5" rx="32.76" ry="2.52" width="9" height="27" fill="#b3c430">
    <animate attributeName="opacity" values="1;0" times="0;1" dur="3s" begin="-0.75s" repeatCount="indefinite"></animate>
  </rect>
</g><g transform="rotate(270 50 50)">
  <rect x="45.5" y="3.5" rx="32.76" ry="2.52" width="9" height="27" fill="#b3c430">
    <animate attributeName="opacity" values="1;0" times="0;1" dur="3s" begin="-0.5s" repeatCount="indefinite"></animate>
  </rect>
</g><g transform="rotate(300 50 50)">
  <rect x="45.5" y="3.5" rx="32.76" ry="2.52" width="9" height="27" fill="#b3c430">
    <animate attributeName="opacity" values="1;0" times="0;1" dur="3s" begin="-0.25s" repeatCount="indefinite"></animate>
  </rect>
</g><g transform="rotate(330 50 50)">
  <rect x="45.5" y="3.5" rx="32.76" ry="2.52" width="9" height="27" fill="#b3c430">
    <animate attributeName="opacity" values="1;0" times="0;1" dur="3s" begin="0s" repeatCount="indefinite"></animate>
  </rect>
</g></svg>